<svg xmlns="http://www.w3.org/2000/svg" xmlns:xlink="http://www.w3.org/1999/xlink" viewBox="0 0 30 30" fill="#FFFFFF">
  <path d="M6 4C4.895 4 4 4.895 4 6L4 24C4 25.105 4.895 26 6 26L24 26C25.105 26 26 25.105 26 24L26 6C26 4.895 25.105 4 24 4L6 4 z M 10.320312 7L14.736328 7C16.688328 7 18.064297 7.4587656 17.904297 9.6347656C17.760297 11.639766 16.464844 12.007812 16.464844 12.007812C16.464844 12.007812 16.885328 12.780187 16.736328 14.242188C16.581328 15.783188 16.752484 16.354609 16.896484 16.599609L14.273438 16.599609C14.273438 16.599609 14.123266 16.284875 14.197266 15.671875C14.427266 13.847875 14.167578 12.867188 12.892578 12.867188L11.361328 12.867188L10.539062 16.599609L8.2636719 16.599609L10.320312 7 z M 12.224609 8.6152344L11.701172 11.251953L14.085938 11.251953C14.806938 11.251953 15.575719 11.010031 15.761719 10.082031C15.953719 9.1380312 15.286031 8.6152344 14.582031 8.6152344L12.224609 8.6152344 z M 19.179688 14.466797L19.6875 17.650391L22.738281 17.650391L19.964844 19.703125L20.603516 23L18.027344 21L14.736328 23L16.283203 19.591797L14.203125 17.667969L17.404297 17.667969L19.179688 14.466797 z" fill="#FFFFFF" />
</svg>